<mxfile host="app.diagrams.net" agent="Mozilla/5.0 (Windows NT 10.0; Win64; x64) AppleWebKit/537.36 (KHTML, like Gecko) Chrome/139.0.0.0 Safari/537.36" version="28.1.0">
  <diagram name="Page-1" id="5gsB3L-KJjCDUrsFCrcA">
    <mxGraphModel dx="1042" dy="562" grid="1" gridSize="10" guides="1" tooltips="1" connect="1" arrows="1" fold="1" page="1" pageScale="1" pageWidth="827" pageHeight="1169" background="#ffffff" math="0" shadow="0">
      <root>
        <mxCell id="0" />
        <mxCell id="1" parent="0" />
        <mxCell id="bzAX0xhwj0-vdSwocIn5-52" value="" style="rounded=0;whiteSpace=wrap;html=1;" parent="1" vertex="1">
          <mxGeometry y="10" width="810" height="880" as="geometry" />
        </mxCell>
        <mxCell id="bzAX0xhwj0-vdSwocIn5-12" style="edgeStyle=orthogonalEdgeStyle;rounded=0;orthogonalLoop=1;jettySize=auto;html=1;entryX=0.5;entryY=0;entryDx=0;entryDy=0;exitX=0.5;exitY=1;exitDx=0;exitDy=0;" parent="1" source="bzAX0xhwj0-vdSwocIn5-1" target="bzAX0xhwj0-vdSwocIn5-5" edge="1">
          <mxGeometry relative="1" as="geometry">
            <mxPoint x="560" y="140" as="sourcePoint" />
          </mxGeometry>
        </mxCell>
        <mxCell id="bzAX0xhwj0-vdSwocIn5-1" value="&lt;b&gt;SOAR EDR Playbook&lt;/b&gt;" style="whiteSpace=wrap;html=1;aspect=fixed;fillColor=#6d8764;strokeColor=#3A5431;fontColor=#ffffff;fontSize=13;" parent="1" vertex="1">
          <mxGeometry x="515" y="30" width="90" height="90" as="geometry" />
        </mxCell>
        <mxCell id="bzAX0xhwj0-vdSwocIn5-11" style="edgeStyle=orthogonalEdgeStyle;rounded=0;orthogonalLoop=1;jettySize=auto;html=1;exitX=1;exitY=0.5;exitDx=0;exitDy=0;exitPerimeter=0;entryX=0;entryY=0.5;entryDx=0;entryDy=0;" parent="1" source="bzAX0xhwj0-vdSwocIn5-2" target="bzAX0xhwj0-vdSwocIn5-4" edge="1">
          <mxGeometry relative="1" as="geometry" />
        </mxCell>
        <mxCell id="bzAX0xhwj0-vdSwocIn5-33" value="&lt;b&gt;&amp;nbsp;Detect HackTool&amp;nbsp;&lt;/b&gt;" style="edgeLabel;html=1;align=center;verticalAlign=middle;resizable=0;points=[];" parent="bzAX0xhwj0-vdSwocIn5-11" vertex="1" connectable="0">
          <mxGeometry x="-0.2092" y="-1" relative="1" as="geometry">
            <mxPoint x="15" y="-1" as="offset" />
          </mxGeometry>
        </mxCell>
        <mxCell id="bzAX0xhwj0-vdSwocIn5-2" value="" style="verticalAlign=top;verticalLabelPosition=bottom;labelPosition=center;align=center;html=1;outlineConnect=0;fillColor=#fad9d5;strokeColor=#ae4132;gradientDirection=north;strokeWidth=2;shape=mxgraph.networks.pc;" parent="1" vertex="1">
          <mxGeometry x="30" y="200" width="80" height="60" as="geometry" />
        </mxCell>
        <mxCell id="bzAX0xhwj0-vdSwocIn5-3" value="" style="verticalAlign=top;verticalLabelPosition=bottom;labelPosition=center;align=center;html=1;outlineConnect=0;fillColor=#ffff88;strokeColor=#36393d;gradientDirection=north;strokeWidth=2;shape=mxgraph.networks.pc;" parent="1" vertex="1">
          <mxGeometry x="70" y="623" width="80" height="60" as="geometry" />
        </mxCell>
        <mxCell id="bzAX0xhwj0-vdSwocIn5-10" style="edgeStyle=orthogonalEdgeStyle;rounded=0;orthogonalLoop=1;jettySize=auto;html=1;exitX=1;exitY=0.5;exitDx=0;exitDy=0;entryX=0;entryY=0.5;entryDx=0;entryDy=0;" parent="1" source="bzAX0xhwj0-vdSwocIn5-4" target="bzAX0xhwj0-vdSwocIn5-5" edge="1">
          <mxGeometry relative="1" as="geometry" />
        </mxCell>
        <mxCell id="bzAX0xhwj0-vdSwocIn5-35" value="&lt;b&gt;&amp;nbsp;Detection (Alert)&amp;nbsp;&lt;/b&gt;" style="edgeLabel;html=1;align=center;verticalAlign=middle;resizable=0;points=[];" parent="bzAX0xhwj0-vdSwocIn5-10" vertex="1" connectable="0">
          <mxGeometry x="-0.2077" y="2" relative="1" as="geometry">
            <mxPoint x="12" y="2" as="offset" />
          </mxGeometry>
        </mxCell>
        <mxCell id="bzAX0xhwj0-vdSwocIn5-4" value="&lt;b&gt;LimaCharlie&lt;/b&gt;" style="rounded=1;whiteSpace=wrap;html=1;fillColor=#dae8fc;strokeColor=#6c8ebf;fontSize=13;" parent="1" vertex="1">
          <mxGeometry x="250" y="205" width="100" height="50" as="geometry" />
        </mxCell>
        <mxCell id="bzAX0xhwj0-vdSwocIn5-9" style="edgeStyle=orthogonalEdgeStyle;rounded=0;orthogonalLoop=1;jettySize=auto;html=1;exitX=0.5;exitY=1;exitDx=0;exitDy=0;entryX=0.5;entryY=0;entryDx=0;entryDy=0;" parent="1" source="bzAX0xhwj0-vdSwocIn5-5" target="bzAX0xhwj0-vdSwocIn5-8" edge="1">
          <mxGeometry relative="1" as="geometry" />
        </mxCell>
        <mxCell id="bzAX0xhwj0-vdSwocIn5-39" value="&lt;b&gt;Does the user want to isolate the machine?&lt;/b&gt;" style="edgeLabel;html=1;align=center;verticalAlign=middle;resizable=0;points=[];textShadow=1;" parent="bzAX0xhwj0-vdSwocIn5-9" vertex="1" connectable="0">
          <mxGeometry x="0.4236" y="1" relative="1" as="geometry">
            <mxPoint x="-1" y="16" as="offset" />
          </mxGeometry>
        </mxCell>
        <mxCell id="bzAX0xhwj0-vdSwocIn5-13" style="rounded=0;orthogonalLoop=1;jettySize=auto;html=1;exitX=0;exitY=1;exitDx=0;exitDy=0;" parent="1" source="bzAX0xhwj0-vdSwocIn5-5" target="bzAX0xhwj0-vdSwocIn5-6" edge="1">
          <mxGeometry relative="1" as="geometry" />
        </mxCell>
        <mxCell id="bzAX0xhwj0-vdSwocIn5-36" value="&lt;b&gt;Send message with details*&lt;/b&gt;" style="edgeLabel;html=1;align=center;verticalAlign=middle;resizable=0;points=[];" parent="bzAX0xhwj0-vdSwocIn5-13" vertex="1" connectable="0">
          <mxGeometry x="0.0667" y="-2" relative="1" as="geometry">
            <mxPoint as="offset" />
          </mxGeometry>
        </mxCell>
        <mxCell id="bzAX0xhwj0-vdSwocIn5-14" style="rounded=0;orthogonalLoop=1;jettySize=auto;html=1;exitX=1;exitY=1;exitDx=0;exitDy=0;entryX=0.5;entryY=0;entryDx=0;entryDy=0;" parent="1" source="bzAX0xhwj0-vdSwocIn5-5" target="bzAX0xhwj0-vdSwocIn5-7" edge="1">
          <mxGeometry relative="1" as="geometry" />
        </mxCell>
        <mxCell id="bzAX0xhwj0-vdSwocIn5-38" value="&lt;b&gt;Send message with details*&lt;/b&gt;" style="edgeLabel;html=1;align=center;verticalAlign=middle;resizable=0;points=[];" parent="bzAX0xhwj0-vdSwocIn5-14" vertex="1" connectable="0">
          <mxGeometry x="-0.1021" relative="1" as="geometry">
            <mxPoint x="12" y="8" as="offset" />
          </mxGeometry>
        </mxCell>
        <mxCell id="bzAX0xhwj0-vdSwocIn5-5" value="&lt;b&gt;Tines&lt;/b&gt;" style="rounded=1;whiteSpace=wrap;html=1;fillColor=#e1d5e7;strokeColor=#9673a6;fontSize=13;" parent="1" vertex="1">
          <mxGeometry x="510" y="205" width="100" height="50" as="geometry" />
        </mxCell>
        <mxCell id="bzAX0xhwj0-vdSwocIn5-6" value="&lt;b&gt;Slack&lt;/b&gt;" style="rounded=0;whiteSpace=wrap;html=1;fillColor=#f8cecc;strokeColor=#b85450;" parent="1" vertex="1">
          <mxGeometry x="270" y="360" width="100" height="40" as="geometry" />
        </mxCell>
        <mxCell id="bzAX0xhwj0-vdSwocIn5-7" value="&lt;b&gt;Email&lt;/b&gt;" style="rounded=0;whiteSpace=wrap;html=1;fillColor=#bac8d3;strokeColor=#23445d;" parent="1" vertex="1">
          <mxGeometry x="680" y="360" width="100" height="40" as="geometry" />
        </mxCell>
        <mxCell id="bzAX0xhwj0-vdSwocIn5-18" style="edgeStyle=orthogonalEdgeStyle;rounded=0;orthogonalLoop=1;jettySize=auto;html=1;exitX=1;exitY=0.5;exitDx=0;exitDy=0;entryX=0.5;entryY=0;entryDx=0;entryDy=0;" parent="1" source="bzAX0xhwj0-vdSwocIn5-8" target="bzAX0xhwj0-vdSwocIn5-17" edge="1">
          <mxGeometry relative="1" as="geometry" />
        </mxCell>
        <mxCell id="bzAX0xhwj0-vdSwocIn5-24" value="&lt;font style=&quot;font-size: 13px;&quot;&gt;&lt;b style=&quot;&quot;&gt;&amp;nbsp;No&amp;nbsp;&lt;/b&gt;&lt;/font&gt;" style="edgeLabel;html=1;align=center;verticalAlign=middle;resizable=0;points=[];textShadow=1;labelBackgroundColor=default;labelBorderColor=light-dark(#ff0000, #ededed);" parent="bzAX0xhwj0-vdSwocIn5-18" vertex="1" connectable="0">
          <mxGeometry x="-0.16" relative="1" as="geometry">
            <mxPoint y="9" as="offset" />
          </mxGeometry>
        </mxCell>
        <mxCell id="bzAX0xhwj0-vdSwocIn5-43" value="&lt;b&gt;&quot;The computer &amp;lt;computer&amp;gt; was not isolated,&lt;/b&gt;&lt;div&gt;&lt;b&gt;please investigate&quot;&lt;/b&gt;&lt;/div&gt;" style="edgeLabel;html=1;align=center;verticalAlign=middle;resizable=0;points=[];textShadow=1;" parent="bzAX0xhwj0-vdSwocIn5-18" vertex="1" connectable="0">
          <mxGeometry x="0.443" y="1" relative="1" as="geometry">
            <mxPoint as="offset" />
          </mxGeometry>
        </mxCell>
        <mxCell id="bzAX0xhwj0-vdSwocIn5-46" style="edgeStyle=orthogonalEdgeStyle;rounded=0;orthogonalLoop=1;jettySize=auto;html=1;exitX=0;exitY=0.5;exitDx=0;exitDy=0;entryX=0.5;entryY=0;entryDx=0;entryDy=0;" parent="1" source="bzAX0xhwj0-vdSwocIn5-8" target="bzAX0xhwj0-vdSwocIn5-15" edge="1">
          <mxGeometry relative="1" as="geometry" />
        </mxCell>
        <mxCell id="bzAX0xhwj0-vdSwocIn5-8" value="&lt;b&gt;User Prompt&lt;/b&gt;" style="rhombus;whiteSpace=wrap;html=1;" parent="1" vertex="1">
          <mxGeometry x="481" y="460" width="110" height="80" as="geometry" />
        </mxCell>
        <mxCell id="bzAX0xhwj0-vdSwocIn5-20" style="edgeStyle=orthogonalEdgeStyle;rounded=0;orthogonalLoop=1;jettySize=auto;html=1;exitX=0.5;exitY=1;exitDx=0;exitDy=0;entryX=0.5;entryY=0;entryDx=0;entryDy=0;" parent="1" source="bzAX0xhwj0-vdSwocIn5-15" target="bzAX0xhwj0-vdSwocIn5-19" edge="1">
          <mxGeometry relative="1" as="geometry" />
        </mxCell>
        <mxCell id="bzAX0xhwj0-vdSwocIn5-42" value="&lt;b&gt;&amp;nbsp;Isolation status &amp;amp;&amp;nbsp;&lt;br&gt;&quot;The computer &amp;lt;computer&amp;gt; has been isolated&quot;&lt;/b&gt;" style="edgeLabel;html=1;align=center;verticalAlign=middle;resizable=0;points=[];textShadow=1;" parent="bzAX0xhwj0-vdSwocIn5-20" vertex="1" connectable="0">
          <mxGeometry x="-0.0167" relative="1" as="geometry">
            <mxPoint as="offset" />
          </mxGeometry>
        </mxCell>
        <mxCell id="bzAX0xhwj0-vdSwocIn5-15" value="&lt;b&gt;LimaCharlie&lt;/b&gt;" style="rounded=1;whiteSpace=wrap;html=1;fillColor=#dae8fc;strokeColor=#6c8ebf;" parent="1" vertex="1">
          <mxGeometry x="315" y="628" width="100" height="50" as="geometry" />
        </mxCell>
        <mxCell id="bzAX0xhwj0-vdSwocIn5-17" value="&lt;b&gt;Slack&lt;/b&gt;" style="rounded=0;whiteSpace=wrap;html=1;fillColor=#f8cecc;strokeColor=#b85450;gradientColor=none;shadow=0;" parent="1" vertex="1">
          <mxGeometry x="576" y="690" width="100" height="40" as="geometry" />
        </mxCell>
        <mxCell id="bzAX0xhwj0-vdSwocIn5-19" value="&lt;b&gt;Slack&lt;/b&gt;" style="rounded=0;whiteSpace=wrap;html=1;fillColor=#f8cecc;strokeColor=#b85450;" parent="1" vertex="1">
          <mxGeometry x="315" y="798" width="100" height="40" as="geometry" />
        </mxCell>
        <mxCell id="bzAX0xhwj0-vdSwocIn5-21" style="edgeStyle=orthogonalEdgeStyle;rounded=0;orthogonalLoop=1;jettySize=auto;html=1;exitX=0;exitY=0.5;exitDx=0;exitDy=0;entryX=1;entryY=0.5;entryDx=0;entryDy=0;entryPerimeter=0;" parent="1" source="bzAX0xhwj0-vdSwocIn5-15" target="bzAX0xhwj0-vdSwocIn5-3" edge="1">
          <mxGeometry relative="1" as="geometry" />
        </mxCell>
        <mxCell id="bzAX0xhwj0-vdSwocIn5-40" value="&lt;b&gt;&amp;nbsp;Isolate machine&amp;nbsp;&lt;/b&gt;" style="edgeLabel;html=1;align=center;verticalAlign=middle;resizable=0;points=[];textShadow=0;" parent="bzAX0xhwj0-vdSwocIn5-21" vertex="1" connectable="0">
          <mxGeometry x="0.2141" y="2" relative="1" as="geometry">
            <mxPoint x="20" y="-2" as="offset" />
          </mxGeometry>
        </mxCell>
        <mxCell id="bzAX0xhwj0-vdSwocIn5-32" value="&lt;b&gt;Infected&lt;/b&gt;" style="text;html=1;align=center;verticalAlign=middle;resizable=0;points=[];autosize=1;strokeColor=none;fillColor=none;" parent="1" vertex="1">
          <mxGeometry x="40" y="255" width="70" height="30" as="geometry" />
        </mxCell>
        <mxCell id="bzAX0xhwj0-vdSwocIn5-47" value="&lt;b&gt;&lt;font style=&quot;font-size: 13px;&quot;&gt;&amp;nbsp;Yes&amp;nbsp;&lt;/font&gt;&lt;/b&gt;" style="edgeLabel;html=1;align=center;verticalAlign=middle;resizable=0;points=[];labelBorderColor=light-dark(#00ff33, #ededed);" parent="1" vertex="1" connectable="0">
          <mxGeometry x="365" y="570" as="geometry" />
        </mxCell>
        <mxCell id="bzAX0xhwj0-vdSwocIn5-49" value="&lt;b&gt;Send message with details* contains;&lt;/b&gt;&lt;div&gt;&lt;div style=&quot;text-align: left;&quot;&gt;&lt;b&gt;- Process&lt;/b&gt;&lt;/div&gt;&lt;div style=&quot;text-align: left;&quot;&gt;&lt;b&gt;- Time&lt;/b&gt;&lt;/div&gt;&lt;div style=&quot;text-align: left;&quot;&gt;&lt;b&gt;- Computer name (hostname)&lt;/b&gt;&lt;/div&gt;&lt;div style=&quot;text-align: left;&quot;&gt;&lt;b&gt;- Source IP&lt;/b&gt;&lt;/div&gt;&lt;div style=&quot;text-align: left;&quot;&gt;&lt;b&gt;- Username&lt;/b&gt;&lt;/div&gt;&lt;div style=&quot;text-align: left;&quot;&gt;&lt;b style=&quot;background-color: light-dark(#ffffff, var(--ge-dark-color, #121212)); color: light-dark(rgb(0, 0, 0), rgb(255, 255, 255));&quot;&gt;- Command line&lt;/b&gt;&lt;/div&gt;&lt;div style=&quot;text-align: left;&quot;&gt;&lt;b&gt;- File path&lt;/b&gt;&lt;/div&gt;&lt;div style=&quot;text-align: left;&quot;&gt;&lt;b&gt;- Sensor ID&lt;/b&gt;&lt;/div&gt;&lt;div style=&quot;text-align: left;&quot;&gt;&lt;b&gt;- Link to the detection (if applicable)&lt;/b&gt;&lt;/div&gt;&lt;/div&gt;" style="edgeLabel;html=1;align=center;verticalAlign=middle;resizable=0;points=[];textShadow=1;fontFamily=Helvetica;" parent="1" vertex="1" connectable="0">
          <mxGeometry x="120" y="460" as="geometry" />
        </mxCell>
        <mxCell id="zNYw5eCfKUaDgCg2s5sH-1" value="Azure VM" style="swimlane;whiteSpace=wrap;html=1;startSize=23;" parent="1" vertex="1">
          <mxGeometry x="20" y="150" width="100" height="140" as="geometry" />
        </mxCell>
      </root>
    </mxGraphModel>
  </diagram>
</mxfile>
